# xmcd CD database file
#
# Track frame offsets:
#	150
#	9235
#	19025
#	27732
#	37381
#	48037
#	61521
#	76447
#	88852
#	99278
#	110637
#	124676
#	137887
#	153031
#	164503
#
# Disc length: 2356 seconds
#
# Revision: 0
# Processed by: cddbd v1.5.2PL0 Copyright (c) Steve Scherf et al.
# Submitted via: CDex 1.51
#
DISCID=b809320f
DTITLE=Various Artist - Conutry Classic
DYEAR=2005
DGENRE=Country
TTITLE0=Frankie Laine - Rawhide
TTITLE1=Johnny Cash - Ballad of a teenage queen
TTITLE2=Buck Owens - After the dance
TTITLE3=Merle Travis - 16 tons
TTITLE4=Tom T. Hall - The year Clayton Delaney died
TTITLE5=Glen Campbell - Rhinestone cowboy
TTITLE6=Kenny Rogers - For the good times
TTITLE7=Lynn Anderson - Stand by your man
TTITLE8=Waylon Jennings - Lorena
TTITLE9=Kitty Wells - It wasn't God who made honky tonk angels
TTITLE10=Billie Jo Spears - Which way you goin'Billy
TTITLE11=Willie Nelson - You'll always have someone
TTITLE12=Bobby Bare - Leaving on a jet plane
TTITLE13=Patsy Cline - Walking after midnight
TTITLE14=Billie Jo Spears - The cheatin'kind
EXTD=YEAR: 2005
EXTT0=
EXTT1=
EXTT2=
EXTT3=
EXTT4=
EXTT5=
EXTT6=
EXTT7=
EXTT8=
EXTT9=
EXTT10=
EXTT11=
EXTT12=
EXTT13=
EXTT14=
PLAYORDER=
